<?xml version="1.0" standalone="no"?><!DOCTYPE svg PUBLIC "-//W3C//DTD SVG 1.1//EN" "http://www.w3.org/Graphics/SVG/1.1/DTD/svg11.dtd"><svg t="1512540419113" class="icon" style="" viewBox="0 0 1024 1024" version="1.1" xmlns="http://www.w3.org/2000/svg" p-id="1868" xmlns:xlink="http://www.w3.org/1999/xlink" width="40" height="40"><defs><style type="text/css"></style></defs><path d="M875.861333 588.444444c-30.691556 0-55.608889-24.903111-55.608889-55.608889 0-30.677333 24.917333-55.566222 55.608889-55.566222 30.663111 0 55.580444 24.888889 55.580444 55.566222C931.441778 563.541333 906.524444 588.444444 875.861333 588.444444zM769.308444 324.394667c-25.585778 0-46.336-20.736-46.336-46.321778 0-25.585778 20.750222-46.321778 46.336-46.321778s46.336 20.736 46.336 46.321778C815.644444 303.658667 794.894222 324.394667 769.308444 324.394667zM769.308444 718.136889c35.84 0 64.867556 29.041778 64.867556 64.839111 0 35.84-29.027556 64.881778-64.867556 64.881778-35.811556 0-64.867556-29.041778-64.867556-64.881778C704.440889 747.178667 733.496889 718.136889 769.308444 718.136889zM514.531556 282.695111c-61.411556 0-111.175111-49.777778-111.175111-111.175111 0-61.397333 49.763556-111.175111 111.175111-111.175111 61.383111 0 111.160889 49.777778 111.160889 111.175111C625.692444 232.917333 575.914667 282.695111 514.531556 282.695111zM262.058667 379.975111c-54.997333 0-99.584-44.600889-99.584-99.598222s44.586667-99.598222 99.584-99.598222c55.011556 0 99.612444 44.600889 99.612444 99.598222S317.070222 379.975111 262.058667 379.975111zM245.859556 532.835556c0 51.2-41.486222 92.672-92.657778 92.672-51.157333 0-92.643556-41.472-92.643556-92.672 0-51.157333 41.486222-92.657778 92.643556-92.657778C204.373333 440.177778 245.859556 481.678222 245.859556 532.835556zM262.058667 704.241778c44.771556 0 81.066667 36.280889 81.066667 81.066667 0 44.771556-36.295111 81.066667-81.066667 81.066667-44.757333 0-81.066667-36.295111-81.066667-81.066667C180.992 740.508444 217.301333 704.241778 262.058667 704.241778zM516.849778 820.039111c39.651556 0 71.779556 32.156444 71.779556 71.793778 0 39.665778-32.142222 71.822222-71.779556 71.822222-39.665778 0-71.822222-32.156444-71.822222-71.822222C445.041778 852.195556 477.184 820.039111 516.849778 820.039111z" fill="#0071c5" p-id="1869"></path></svg>